<svg width="83" height="77" viewBox="0 0 83 77" fill="none" xmlns="http://www.w3.org/2000/svg">
<path d="M45.6052 36.2553L41.1685 31.817C40.1523 30.8005 38.7749 30.2277 37.3376 30.2239C35.9003 30.2201 34.5199 30.7855 33.4983 31.7966L2.65234 60.2636C1.52916 61.3222 0.791696 62.6714 0.723727 64.182C0.690922 64.9312 0.812967 65.6791 1.08224 66.3791C1.35151 67.079 1.76222 67.7159 2.28871 68.2499L8.91566 74.95C8.91922 74.9543 8.92321 74.9583 8.92756 74.9618C9.95173 75.9824 11.3372 76.5576 12.7831 76.5625H12.9836C14.4942 76.5064 15.8468 75.7979 16.9207 74.6645L45.5865 43.9596C46.0948 43.4556 46.4986 42.8563 46.7748 42.1959C47.0509 41.5355 47.194 40.8271 47.1957 40.1113C47.1974 39.3956 47.0578 38.6865 46.7849 38.0248C46.512 37.3631 46.1111 36.7617 45.6052 36.2553ZM81.2616 27.2852L81.2089 27.2325L75.3857 21.4687C75.0446 21.1288 74.6395 20.8597 74.1939 20.6772C73.7483 20.4946 73.2709 20.4021 72.7893 20.405C72.009 20.4059 71.2488 20.652 70.616 21.1085C70.616 21.0354 70.6262 20.9641 70.6313 20.9012C70.7078 19.7967 70.8267 18.1281 69.7477 16.6158C68.4648 14.8866 67.0563 13.2544 65.5336 11.7322C65.5295 11.7273 65.525 11.7227 65.52 11.7186C63.2567 9.48924 58.3306 5.29047 50.7844 2.21319C47.9225 1.03883 44.8585 0.435615 41.765 0.437504C36.4022 0.437504 32.3241 2.85719 30.7625 4.29133C29.8783 5.13594 29.0719 6.05837 28.353 7.04747C28.0096 7.5215 27.8283 8.09371 27.8362 8.67902C27.844 9.26433 28.0406 9.83147 28.3966 10.2961C28.7526 10.7608 29.2491 11.0981 29.8122 11.2579C30.3753 11.4178 30.975 11.3916 31.5221 11.1834C31.9987 11.0054 32.4855 10.8562 32.98 10.7365C34.0099 10.5188 35.0661 10.4529 36.1151 10.5411C38.3563 10.7263 41.0071 11.8393 42.1796 12.7653C44.1677 14.3643 45.1243 16.5189 45.2823 19.7474C45.3129 20.3965 43.9705 22.8298 41.8839 25.6063C41.4864 26.1303 41.2924 26.7806 41.3377 27.4367C41.383 28.0929 41.6646 28.7103 42.1303 29.1747L47.9773 35.0217C48.4686 35.5142 49.1301 35.7996 49.8255 35.8192C50.5208 35.8388 51.1973 35.5911 51.7156 35.1271C53.3689 33.6504 55.8872 31.4245 56.7674 30.879C58.0741 30.0753 59.0086 29.9207 59.2652 29.8935C59.931 29.8284 60.6007 29.9696 61.1836 30.2979C61.1865 30.327 61.1833 30.3563 61.1743 30.3841C61.1652 30.4119 61.1505 30.4375 61.131 30.4593L60.8217 30.7533L60.7707 30.8008C60.429 31.1413 60.158 31.546 59.9734 31.9916C59.7888 32.4372 59.6941 32.915 59.6949 33.3973C59.6957 33.8797 59.7919 34.3571 59.978 34.8021C60.1641 35.2471 60.4364 35.6509 60.7792 35.9903L66.6007 41.7523C66.9419 42.0921 67.347 42.3608 67.7927 42.5431C68.2383 42.7254 68.7157 42.8176 69.1971 42.8143C70.164 42.8158 71.0927 42.4375 71.7834 41.7608L81.214 32.4457C81.2463 32.4134 81.2786 32.3794 81.3092 32.3454C81.9418 31.6519 82.2886 30.7447 82.2798 29.8059C82.271 28.8672 81.9072 27.9667 81.2616 27.2852Z" fill="white"/>
</svg>
