<svg width="71" height="83" viewBox="0 0 71 83" fill="none" xmlns="http://www.w3.org/2000/svg">
<path d="M70.8438 49.6562C70.8505 45.9969 69.9291 42.3956 68.1658 39.1891C68.3924 38.8537 68.5854 38.4967 68.7449 38.1179C69.1493 37.1508 69.2936 36.0948 69.1636 35.0547C69.0336 34.0147 68.6337 33.0267 68.0038 32.1889C67.3738 31.3512 66.5357 30.6928 65.5725 30.2792C64.6094 29.8656 63.5548 29.7111 62.5136 29.8311C62.9703 28.9104 63.3328 27.9497 63.6011 26.9492L65.5966 19.5352C66.6831 16.0818 66.4603 12.3493 64.9708 9.04972C63.4812 5.7501 60.829 3.1143 57.5203 1.64513C54.2115 0.175951 50.4777 -0.0237793 47.0311 1.08404C43.5845 2.19185 40.6663 4.52968 38.8333 7.65156C37.1546 5.33753 34.7057 3.69794 31.9267 3.02734C29.1477 2.35675 26.2206 2.6991 23.6713 3.9929C21.122 5.2867 19.1176 7.44715 18.0182 10.0861C16.9189 12.7251 16.7965 15.6696 17.6732 18.3906H11.4446C0.683751 18.3906 -3.54118 32.346 5.41166 38.3136L10.686 41.8317L7.00757 56.2628C6.54771 58.0042 6.49741 59.8285 6.86062 61.5926C7.22382 63.3567 7.99065 65.0128 9.101 66.4309C10.5519 68.3011 12.5317 69.6917 14.7832 70.4221V79.5625C14.7832 80.2836 15.0696 80.9751 15.5795 81.4849C16.0894 81.9948 16.7809 82.2812 17.5019 82.2812H68.1251C68.8461 82.2812 69.5377 81.9948 70.0475 81.4849C70.5574 80.9751 70.8438 80.2836 70.8438 79.5625V49.6562ZM32.7813 70.9984H40.1763C41.7512 70.9987 43.2632 70.3806 44.3869 69.2772C45.5107 68.1738 46.1562 66.6734 46.1848 65.0987C46.1848 64.2931 46.0256 63.4955 45.7165 62.7515C45.4074 62.0076 44.9544 61.332 44.3835 60.7636C43.8125 60.1952 43.135 59.7452 42.3897 59.4394C41.6444 59.1336 40.846 58.978 40.0404 58.9816H32.7813V51.4805C32.7814 51.033 32.671 50.5925 32.4599 50.1979C32.2489 49.8033 31.9437 49.4669 31.5715 49.2185L8.42675 33.7896C3.95169 30.8044 6.06416 23.8281 11.4446 23.8281H19.1604L19.8129 26.2478C20.4349 28.5626 21.6996 30.654 23.4605 32.2802C25.2214 33.9064 27.4066 35.0009 29.7635 35.4372C31.296 35.7054 32.8673 35.6545 34.3793 35.2877C35.8912 34.921 37.3112 34.2462 38.5505 33.3057C38.7009 33.3311 38.855 33.3438 39.0127 33.3438H49.0938C50.136 33.3456 51.151 33.4398 52.1388 33.6265L45.3148 36.2528C44.0106 36.7594 42.9241 37.7053 42.2427 38.9273C41.5613 40.1493 41.3277 41.5708 41.5823 42.9466C41.8368 44.3224 42.5635 45.5662 43.637 46.4635C44.7105 47.3608 46.0634 47.8554 47.4626 47.8619C48.2075 47.8619 48.9443 47.7232 49.6376 47.4541L63.5548 42.0981C64.7375 44.3547 65.4063 46.9293 65.4063 49.6562V76.8438H32.7813V70.9984ZM42.5824 27.9062C42.6857 27.638 42.7809 27.3661 42.8679 27.0906C43.5802 24.804 43.6283 22.362 43.0065 20.0491L41.7885 15.642L42.441 13.2114L42.4573 13.1462C42.7222 11.9146 43.2345 10.7498 43.9631 9.72222C44.6918 8.6947 45.6217 7.82595 46.6963 7.1687C47.7709 6.51145 48.9679 6.07941 50.2146 5.89881C51.4612 5.7182 52.7316 5.79279 53.9485 6.11805C55.1655 6.44331 56.3037 7.01246 57.294 7.79095C58.2843 8.56944 59.1061 9.54104 59.7096 10.6468C60.313 11.7525 60.6854 12.9694 60.8043 14.2234C60.9232 15.4775 60.786 16.7426 60.4011 17.942L60.3821 18.0018L58.3512 25.5464C57.992 26.8783 57.3627 28.122 56.5024 29.2004C54.1268 28.3421 51.6198 27.9042 49.0938 27.9062H42.5824Z" fill="white"/>
</svg>
