<svg width="75" height="70" viewBox="0 0 75 70" fill="none" xmlns="http://www.w3.org/2000/svg">
<path fill-rule="evenodd" clip-rule="evenodd" d="M36.3036 8.34596C28.6904 -1.10306 15.089 -1.67178 6.79628 7.11216C0.98631 13.2662 -0.524125 22.2496 2.2648 29.8751H17.1311L26.625 10.8943L37.5 32.6409L42.9375 21.7693L46.9903 29.8751H72.7355C75.5242 22.2498 74.0138 13.2662 68.204 7.11216C59.9111 -1.67161 46.3099 -1.10306 38.6966 8.34596L37.5001 9.83091L36.3036 8.34596ZM68.3 37.1249H43.3653L37.5 48.8557L26.625 27.1055L21.6153 37.1249H6.70027C6.7321 37.1592 6.76411 37.1933 6.79628 37.2274L37.4847 69.7336L37.4998 69.7499L68.2038 37.2274C68.2359 37.1934 68.2681 37.1593 68.3 37.1249Z" fill="white"/>
</svg>
