<svg width="68" height="73" viewBox="0 0 68 73" fill="none" xmlns="http://www.w3.org/2000/svg">
<path d="M29.875 0.25C36.9172 0.248914 43.7192 2.81036 49.0115 7.45627C54.3037 12.1022 57.7247 18.5151 58.6357 25.4981L66.792 38.327C67.3285 39.1716 67.2197 40.4295 65.9764 40.966L58.875 44.0037V54.625C58.875 56.5478 58.1112 58.3919 56.7515 59.7515C55.3919 61.1112 53.5478 61.875 51.625 61.875H44.3786L44.375 72.75H11.75V59.3592C11.75 55.0817 10.1695 51.0326 7.23687 47.3786C3.82104 43.1137 1.67967 37.9704 1.05948 32.5415C0.439296 27.1126 1.36553 21.6189 3.73146 16.6934C6.0974 11.7679 9.80676 7.61113 14.4322 4.70191C19.0576 1.79269 24.4108 0.249452 29.875 0.25ZM29.875 18.375C28.9136 18.375 27.9916 18.7569 27.3117 19.4367C26.6319 20.1166 26.25 21.0386 26.25 22V25.6214L22.625 25.625C21.6636 25.625 20.7416 26.0069 20.0617 26.6867C19.3819 27.3666 19 28.2886 19 29.25C19 30.2114 19.3819 31.1334 20.0617 31.8133C20.7416 32.4931 21.6636 32.875 22.625 32.875L26.25 32.8714V36.5C26.25 37.4614 26.6319 38.3834 27.3117 39.0633C27.9916 39.7431 28.9136 40.125 29.875 40.125C30.8364 40.125 31.7584 39.7431 32.4383 39.0633C33.1181 38.3834 33.5 37.4614 33.5 36.5V32.875H37.125C38.0864 32.875 39.0084 32.4931 39.6883 31.8133C40.3681 31.1334 40.75 30.2114 40.75 29.25C40.75 28.2886 40.3681 27.3666 39.6883 26.6867C39.0084 26.0069 38.0864 25.625 37.125 25.625H33.5V22C33.5 21.0386 33.1181 20.1166 32.4383 19.4367C31.7584 18.7569 30.8364 18.375 29.875 18.375Z" fill="white"/>
</svg>
